<svg xmlns="http://www.w3.org/2000/svg" viewBox="0 0 1920 1080"><defs><style>.cls-1{fill:#f96a79;}.cls-2{fill:#ccc;}.cls-3{fill:#be97f5;}.cls-4{fill:#cd59c6;}.cls-5{font-size:20px;font-family:Montserrat-Medium, Montserrat;font-weight:500;}.cls-6{letter-spacing:-0.01em;}.cls-7{letter-spacing:-0.01em;}.cls-11,.cls-8{font-size:24px;font-family:Montserrat-ExtraBold, Montserrat;font-weight:800;}.cls-9{letter-spacing:0.01em;}.cls-10{letter-spacing:0em;}.cls-11{letter-spacing:0em;}.cls-12{letter-spacing:0em;}.cls-13{letter-spacing:-0.01em;}.cls-14{letter-spacing:-0.01em;}.cls-15{letter-spacing:0.01em;}.cls-16{letter-spacing:-0.02em;}</style></defs><g id="Header"><rect id="Header.bg" class="cls-1" width="1920" height="60"/></g><g id="SideNav"><rect id="SideNav.g" class="cls-1" y="60" width="320" height="980"/><rect id="ProfileImg" class="cls-2" x="90" y="102" width="140" height="140"/><rect id="ActiveTab" class="cls-3" y="360" width="320" height="70"/><rect id="InactiveTab" class="cls-4" y="434" width="320" height="70"/><rect id="InactiveTab-2" data-name="InactiveTab" class="cls-4" y="508" width="320" height="70"/><rect id="InactiveTab-3" data-name="InactiveTab" class="cls-4" y="582" width="320" height="70"/><rect id="InactiveTab-4" data-name="InactiveTab" class="cls-4" y="656" width="320" height="70"/><text class="cls-5" transform="translate(111.51 277.83)">Pl<tspan class="cls-6" x="20.02" y="0">a</tspan><tspan class="cls-7" x="31.78" y="0">y</tspan><tspan x="42.66" y="0">er ID</tspan></text><text class="cls-8" transform="translate(91.51 403.83)">Ho<tspan class="cls-9" x="35.33" y="0">m</tspan><tspan class="cls-10" x="60.6" y="0">e</tspan></text><text class="cls-11" transform="translate(89.51 478.83)">E<tspan class="cls-12" x="16.06" y="0">xplo</tspan><tspan class="cls-13" x="71.09" y="0">r</tspan><tspan class="cls-10" x="81.55" y="0">er</tspan></text><text class="cls-8" transform="translate(90.51 554.83)">Cha<tspan class="cls-14" x="49.49" y="0">r</tspan><tspan class="cls-9" x="59.98" y="0">a</tspan><tspan class="cls-15" x="75.24" y="0">c</tspan><tspan class="cls-16" x="89.93" y="0">t</tspan><tspan x="100.27" y="0">er</tspan></text><text class="cls-8" transform="translate(89.51 628.83)">S<tspan class="cls-9" x="15.53" y="0">h</tspan><tspan class="cls-10" x="32.42" y="0">op</tspan></text><text class="cls-8" transform="translate(89.51 702.83)">Node</text><rect class="cls-2" x="26" y="376" width="38" height="38"/><rect class="cls-2" x="26" y="450" width="38" height="38"/><rect class="cls-2" x="26" y="524" width="38" height="38"/><rect class="cls-2" x="26" y="598" width="38" height="38"/><rect class="cls-2" x="26" y="674" width="38" height="38"/></g><g id="ContentArea"><rect id="ContentArea.bg" class="cls-3" x="320" y="60" width="1600" height="980"/></g><g id="Footer"><rect id="Footer.bg" class="cls-1" y="1040" width="1920" height="40"/></g></svg>