<svg width="32" height="32" viewBox="0 0 32 32" fill="none" xmlns="http://www.w3.org/2000/svg">
<path d="M32 16C32 15.8056 31.9965 15.612 31.9897 15.4193C31.684 6.85175 24.6422 0 16 0C7.35781 0 0.316 6.85175 0.010375 15.4193C0.0035 15.612 0 15.8056 0 16C0 24.8366 8.21887 31.4194 16 31.4194C23.9221 31.4194 32 24.8366 32 16Z" fill="#FF5876"/>
<path d="M16 30.8387C7.35794 30.8387 0.317375 23.9868 0.011625 15.4193C0.0046875 15.6122 0 15.8055 0 16C0 24.8366 7.16344 32 16 32C24.8366 32 32 24.8366 32 16C32 15.8055 31.9953 15.6122 31.9884 15.4194C31.6826 23.9868 24.6421 30.8387 16 30.8387Z" fill="#E6485D"/>
<path d="M29.3386 15.4193C29.0346 8.31511 23.179 2.64886 16 2.64886C8.8209 2.64886 2.96527 8.31511 2.66127 15.4193C2.65302 15.6119 2.66121 28.5019 16 28.5019C29.3387 28.5019 29.3469 15.6119 29.3386 15.4193V15.4193Z" fill="#E4EEF9"/>
<path d="M16 28.1898C8.82105 28.1898 2.96636 22.5234 2.66224 15.4193C2.65399 15.6119 2.64893 15.8053 2.64893 15.9999C2.64893 23.3736 8.62642 29.3511 16 29.3511C23.3737 29.3511 29.3512 23.3736 29.3512 16C29.3512 15.8054 29.346 15.6119 29.3379 15.4194C29.0337 22.5235 23.179 28.1898 16 28.1898V28.1898Z" fill="#D5E0F2"/>
<path d="M20.8496 11.3156C20.4691 10.9403 19.8563 10.9445 19.4811 11.325L17.2102 13.6273L17.4384 14.7234L18.4991 15.0768L20.8591 12.6842C21.2343 12.3037 21.2301 11.6909 20.8496 11.3156V11.3156Z" fill="#405B6C"/>
<path d="M14.6301 13.7154L9.47997 9.12595C9.08091 8.77033 8.46922 8.80558 8.11366 9.20464C7.7581 9.60364 7.79328 10.2154 8.19235 10.5709L13.4439 15.2508L14.5382 14.8858L14.6301 13.7154Z" fill="#405B6C"/>
<path d="M22.8522 22.2398C22.7424 22.2398 22.632 22.2026 22.5412 22.1264L16.4117 16.9778C16.2071 16.8059 16.1805 16.5007 16.3524 16.2961C16.5242 16.0914 16.8294 16.0649 17.0341 16.2368L23.1637 21.3855C23.3682 21.5574 23.3949 21.8626 23.223 22.0672C23.1273 22.1811 22.9902 22.2398 22.8522 22.2398Z" fill="#86DCFF"/>
<path d="M13.4438 15.2508L14.3476 16.0562L15.5082 15.6618L15.4453 14.4419L14.6301 13.7155C14.0629 14.0563 13.6336 14.6023 13.4438 15.2508Z" fill="#2D4456"/>
<path d="M17.2103 13.6274L16.4419 14.4064V15.9355H17.6523L18.4993 15.0768C18.2665 14.4471 17.8023 13.93 17.2103 13.6274Z" fill="#2D4456"/>
<path d="M17.549 15.4193C17.3139 14.7924 16.7091 14.3462 16.0001 14.3462C15.2911 14.3462 14.6863 14.7924 14.4511 15.4193C14.3834 15.5999 14.4467 17.0731 16.0001 17.0731C17.5535 17.0731 17.6168 15.5999 17.549 15.4193V15.4193Z" fill="#FF5876"/>
<path d="M16 16.4925C15.291 16.4925 14.6864 16.0462 14.4513 15.4194C14.3835 15.6001 14.3462 15.7956 14.3462 16C14.3462 16.9134 15.0866 17.6537 15.9999 17.6537C16.9133 17.6537 17.6537 16.9133 17.6537 16C17.6537 15.7956 17.6164 15.6001 17.5486 15.4194C17.3136 16.0462 16.709 16.4925 16 16.4925Z" fill="#E6485D"/>
<path d="M16.4848 5.84832V4.34663C16.4848 4.07888 16.2677 3.86182 16 3.86182C15.7322 3.86182 15.5151 4.07888 15.5151 4.34663V5.84832C15.5151 6.11607 15.7321 6.33313 16 6.33313C16.2678 6.33313 16.4848 6.11607 16.4848 5.84832Z" fill="#405B6C"/>
<path d="M15.5151 26.1517V27.6534C15.5151 27.9211 15.7321 28.1382 16 28.1382C16.2678 28.1382 16.4848 27.9211 16.4848 27.6534V26.1517C16.4848 25.8839 16.2677 25.6669 16 25.6669C15.7322 25.6669 15.5151 25.8839 15.5151 26.1517Z" fill="#405B6C"/>
<path d="M27.6532 16.4848C27.9211 16.4848 28.1381 16.2678 28.1381 16C28.1381 15.7323 27.921 15.5152 27.6532 15.5152H26.1516C25.8838 15.5152 25.6667 15.7323 25.6667 16C25.6667 16.2678 25.8838 16.4848 26.1516 16.4848H27.6532Z" fill="#405B6C"/>
<path d="M4.34663 15.5152C4.07882 15.5152 3.86182 15.7323 3.86182 16C3.86182 16.2678 4.07882 16.4848 4.34663 16.4848H5.84832C6.11613 16.4848 6.33313 16.2678 6.33313 16C6.33313 15.7323 6.11607 15.5152 5.84832 15.5152H4.34663Z" fill="#405B6C"/>
</svg>
