<?xml version="1.0" encoding="iso-8859-1"?>
<!-- Generator: Adobe Illustrator 19.0.0, SVG Export Plug-In . SVG Version: 6.00 Build 0)  -->
<svg version="1.1" id="Capa_1" xmlns="http://www.w3.org/2000/svg" xmlns:xlink="http://www.w3.org/1999/xlink" x="0px" y="0px"
	 width="32" height="32" viewBox="0 0 512 512" style="enable-background:new 0 0 512 512;" xml:space="preserve">
<polygon style="fill:#1DE8F1;" points="136,346 27.074,321.537 16,286 136,226 256,286 243.497,322.251 "/>
<polygon style="fill:#00D0FF;" points="136,512 16,452 16,286 136,346 166,390.154 166,468.889 "/>
<polygon style="fill:#00BBFF;" points="256,452 136,512 136,346 256,286 "/>
<polygon style="fill:#FF0B69;" points="376,346 267.074,321.537 256,286 376,226 496,286 483.497,322.251 "/>
<polygon style="fill:#DD025B;" points="376,512 256,452 256,286 376,346 406,390.154 406,468.889 "/>
<polygon style="fill:#9E0A48;" points="496,452 376,512 376,346 496,286 "/>
<polygon style="fill:#7986E8;" points="256,120 147.074,95.537 136,60 256,0 376,60 363.497,96.251 "/>
<polygon style="fill:#6E77E5;" points="256,286 136,226 136,60 256,120 286,163.154 286,242.889 "/>
<polygon style="fill:#4C5CE1;" points="376,226 256,286 256,120 376,60 "/>
<g>
</g>
<g>
</g>
<g>
</g>
<g>
</g>
<g>
</g>
<g>
</g>
<g>
</g>
<g>
</g>
<g>
</g>
<g>
</g>
<g>
</g>
<g>
</g>
<g>
</g>
<g>
</g>
<g>
</g>
</svg>
