<svg width="32" height="32" viewBox="0 0 32 32" fill="none" xmlns="http://www.w3.org/2000/svg">
<g clip-path="url(#clip0)">
<path d="M29.4246 30.5673H17.1912V23.7508L23.3079 18.2063L29.4246 23.7508V30.5673Z" fill="#F8F7F7"/>
<path d="M27.4929 21.9999V30.5673H29.4245V23.7508L27.4929 21.9999Z" fill="#EFEFEF"/>
<path d="M25.6901 30.5752H20.9255V26.0121C20.9255 24.6964 21.9921 23.6298 23.3078 23.6298C24.6235 23.6298 25.6902 24.6963 25.6902 26.0121V30.5752H25.6901Z" fill="#686169"/>
<path d="M14.6187 7.32525C14.6187 13.8786 8.05306 19.9056 7.30937 19.9056C6.56569 19.9056 0 13.8786 0 7.32525C0 3.27962 3.2725 0 7.30937 0C11.3462 0 14.6187 3.27962 14.6187 7.32525V7.32525Z" fill="#FF6167"/>
<path d="M7.30932 0C6.98188 0 6.65957 0.0219375 6.34351 0.06375C9.92382 0.537437 12.6871 3.60775 12.6871 7.32525C12.6871 12.6368 8.37401 17.6023 6.34351 19.2934C6.81819 19.6888 7.16838 19.9056 7.30932 19.9056C8.05301 19.9056 14.6187 13.8786 14.6187 7.32525C14.6187 3.27962 11.3462 0 7.30932 0V0Z" fill="#FE454A"/>
<path d="M7.30931 12.283C10.0474 12.283 12.2671 10.0633 12.2671 7.32524C12.2671 4.58715 10.0474 2.36749 7.30931 2.36749C4.57122 2.36749 2.35156 4.58715 2.35156 7.32524C2.35156 10.0633 4.57122 12.283 7.30931 12.283Z" fill="#F8F7F7"/>
<path d="M7.30932 2.36749C6.97888 2.36749 6.65607 2.40068 6.34351 2.46262C8.61638 2.91331 10.3354 4.92199 10.3354 7.32524C10.3354 9.72849 8.61638 11.7372 6.34351 12.1879C6.65607 12.2498 6.97882 12.283 7.30932 12.283C10.043 12.283 12.2671 10.0589 12.2671 7.32524C12.2671 4.59156 10.0431 2.36749 7.30932 2.36749V2.36749Z" fill="#EFEFEF"/>
<path d="M31.5574 24.1407L23.9598 17.187C23.5908 16.8492 23.0246 16.8492 22.6557 17.187L15.0581 24.1407C14.6646 24.5008 14.6376 25.1117 14.9977 25.5052C15.3579 25.8986 15.9688 25.9256 16.3622 25.5656L23.3078 19.2086L30.2533 25.5656C30.4386 25.7352 30.6722 25.8189 30.9051 25.8189C31.1666 25.8189 31.4273 25.7133 31.6178 25.5052C31.9779 25.1117 31.9508 24.5008 31.5574 24.1407Z" fill="#FF6167"/>
<path d="M13.0645 27.8241H11.2766C11.0177 27.8241 10.8079 28.034 10.8079 28.2929C10.8079 28.5518 11.0177 28.7616 11.2766 28.7616H13.0645C13.3234 28.7616 13.5332 28.5518 13.5332 28.2929C13.5332 28.034 13.3234 27.8241 13.0645 27.8241Z" fill="#7B727B"/>
<path d="M9.63233 27.8241H8.52689C8.11401 27.8241 7.77808 27.4882 7.77808 27.0753V25.5457C7.77808 25.2868 7.56826 25.077 7.30933 25.077C7.05039 25.077 6.84058 25.2868 6.84058 25.5457V27.0753C6.84058 28.0051 7.59708 28.7616 8.52689 28.7616H9.63233C9.89126 28.7616 10.1011 28.5518 10.1011 28.2929C10.1011 28.034 9.89126 27.8241 9.63233 27.8241V27.8241Z" fill="#7B727B"/>
<path d="M7.30933 24.3635C7.56826 24.3635 7.77808 24.1536 7.77808 23.8948V22.24C7.77808 21.9811 7.56826 21.7713 7.30933 21.7713C7.05039 21.7713 6.84058 21.9811 6.84058 22.24V23.8948C6.84058 24.1536 7.05045 24.3635 7.30933 24.3635Z" fill="#7B727B"/>
<path d="M31.0342 32H15.5815C15.0482 32 14.6157 31.5676 14.6157 31.0342C14.6157 30.5008 15.0481 30.0684 15.5815 30.0684H31.0342C31.5676 30.0684 32 30.5007 32 31.0342C32 31.5676 31.5677 32 31.0342 32Z" fill="#E07F5D"/>
<path d="M31.0341 30.0685H29.1025C29.6359 30.0685 30.0684 30.5009 30.0684 31.0343C30.0684 31.5676 29.6359 32.0001 29.1025 32.0001H31.0341C31.5675 32.0001 31.9999 31.5676 31.9999 31.0343C31.9999 30.5008 31.5675 30.0685 31.0341 30.0685Z" fill="#D06D4A"/>
</g>
<defs>
<clipPath id="clip0">
<rect width="32" height="32" fill="white"/>
</clipPath>
</defs>
</svg>
