<svg width="32" height="32" viewBox="0 0 32 32" fill="none" xmlns="http://www.w3.org/2000/svg">
<g clip-path="url(#clip0)">
<path d="M17.345 14.6551L16.0192 13.3293L0.274734 29.0735C-0.0915782 29.4399 -0.0915782 30.0329 0.274734 30.3993L0.937797 31.0623L1.60061 31.7251C1.96692 32.0915 2.55999 32.0915 2.92642 31.7251L18.6708 15.9808L17.345 14.6551Z" fill="#3B4A51"/>
<path d="M2.92637 31.7251L18.6707 15.9809L17.3449 14.6551L0.937744 31.0623L1.60056 31.7251C1.96693 32.0915 2.55993 32.0915 2.92637 31.7251V31.7251Z" fill="#293939"/>
<path d="M16.8634 2.99201L16.3779 1.18063C16.2439 0.680194 16.5404 0.166194 17.0408 0.0321935C17.5413 -0.101807 18.054 0.194694 18.1893 0.695131L18.6748 2.50651C18.8088 3.00694 18.5123 3.52094 18.0119 3.65494C17.5075 3.78926 16.9961 3.48763 16.8634 2.99201V2.99201Z" fill="#FED843"/>
<path d="M22.2017 22.9144L21.7162 21.103C21.5822 20.6026 21.8787 20.0886 22.3791 19.9546C22.8788 19.8199 23.3929 20.1177 23.5275 20.6175L24.013 22.4289C24.147 22.9293 23.8505 23.4433 23.3501 23.5773C22.8458 23.7116 22.3343 23.41 22.2017 22.9144Z" fill="#FABE2C"/>
<path d="M8.42289 8.65007C8.55689 8.14963 9.07089 7.85313 9.57133 7.98713L11.3827 8.4727C11.8812 8.60607 12.1789 9.12007 12.0456 9.62114C11.9116 10.1216 11.3976 10.4181 10.8972 10.2841L9.08583 9.79851C8.59089 9.66601 8.28833 9.1552 8.42289 8.65007Z" fill="#FED843"/>
<path d="M28.3453 13.9883C28.4793 13.4879 28.9933 13.1914 29.4937 13.3254L31.3051 13.8109C31.8029 13.9436 32.102 14.4589 31.968 14.9594C31.834 15.4598 31.32 15.7563 30.8196 15.6223L29.0082 15.1367C28.5133 15.0043 28.2107 14.4934 28.3453 13.9883Z" fill="#FABE2C"/>
<path d="M28.8132 3.18688C28.4469 2.82044 27.8538 2.82044 27.4874 3.18688L26.1615 4.51269C25.7951 4.87913 25.7951 5.47219 26.1615 5.8385C26.528 6.20494 27.1209 6.20494 27.4874 5.8385L28.8132 4.51269C29.1796 4.14619 29.1796 3.55331 28.8132 3.18688Z" fill="#FED843"/>
<path d="M27.4874 5.83844L28.8132 4.51263C29.1797 4.14619 29.1797 3.55325 28.8132 3.18681L26.1616 5.83844C26.5281 6.20488 27.121 6.20488 27.4874 5.83844V5.83844Z" fill="#FABE2C"/>
<path d="M30.1565 9.13563C30.0575 8.76463 29.7416 8.49144 29.3622 8.44751L24.1716 7.82863V7.82851L23.5527 2.63795C23.508 2.25788 23.2355 1.94263 22.8645 1.84363C22.4936 1.74451 22.1006 1.8812 21.8708 2.18738L18.7402 6.37326L13.9359 4.31401C13.5831 4.16307 13.1747 4.24145 12.9033 4.51269C12.6321 4.78394 12.5538 5.19244 12.7046 5.54532L14.7639 10.3494L10.578 13.4802C10.2717 13.71 10.1352 14.103 10.2342 14.4739C10.3334 14.8449 10.6492 15.1167 11.0286 15.162L16.2192 15.7809L16.8381 20.9716C16.8837 21.3563 17.1616 21.6686 17.5262 21.7659C17.8971 21.8649 18.2901 21.7283 18.5199 21.4221L21.6507 17.2363L26.4548 19.2955C26.8076 19.4463 27.2162 19.3681 27.4874 19.0968C27.7587 18.8256 27.8371 18.4171 27.6862 18.0642L25.6269 13.2601L29.8127 10.1293C30.1189 9.89951 30.2556 9.50651 30.1565 9.13563V9.13563Z" fill="#FED843"/>
<path d="M17.5263 21.7659C17.8972 21.8649 18.2902 21.7283 18.52 21.4221L21.6507 17.2362L26.4549 19.2955C26.8077 19.4463 27.2162 19.3681 27.4875 19.0968C27.7587 18.8256 27.8371 18.4171 27.6863 18.0642L25.6269 13.2601L29.8128 10.1293C30.1191 9.8995 30.2557 9.5065 30.1566 9.13563C30.0576 8.76463 29.7416 8.49144 29.3622 8.44751L24.1717 7.82863V7.82851L16.2192 15.7809L16.8381 20.9716C16.8837 21.3563 17.1617 21.6686 17.5263 21.7659V21.7659Z" fill="#FABE2C"/>
</g>
<defs>
<clipPath id="clip0">
<rect width="32" height="32" fill="white"/>
</clipPath>
</defs>
</svg>
