<svg width="32" height="32" viewBox="0 0 32 32" fill="none" xmlns="http://www.w3.org/2000/svg">
<g clip-path="url(#clip0)">
<path d="M26.4626 18.875H5.47485L0 32H32L26.4626 18.875Z" fill="#9ED0FF"/>
<path d="M32 32H16V18.875H26.4626L32 32Z" fill="#73BCFF"/>
<path d="M25.2249 20.75H6.71265L2.8125 30.125H29.125L25.2249 20.75Z" fill="#3AAAFF"/>
<path d="M29.125 30.125H16V20.75H25.2249L29.125 30.125Z" fill="#0095FF"/>
<path d="M16 0C11.3501 0 7.5625 3.84985 7.5625 8.5C7.5625 10.0938 8.01245 11.7124 8.8562 13.0625L16 24.3875L23.1438 13.0625C23.9875 11.7124 24.4375 10.0938 24.4375 8.5C24.4375 3.84985 20.6499 0 16 0V0ZM16 13.25C13.4126 13.25 11.3125 11.0874 11.3125 8.5C11.3125 5.9126 13.4126 3.75 16 3.75C18.5874 3.75 20.6875 5.9126 20.6875 8.5C20.6875 11.0874 18.5874 13.25 16 13.25Z" fill="#FF9F00"/>
<path d="M11.0864 19.6963L12.9468 19.9287L11.5408 31.179L9.68042 30.9465L11.0864 19.6963Z" fill="#9ED0FF"/>
<path d="M20.4541 31.1814L19.012 19.9314L20.8726 19.6936L22.3145 30.9436L20.4541 31.1814Z" fill="#73BCFF"/>
<path d="M4.21875 24.5H27.7188V26.375H4.21875V24.5Z" fill="#9ED0FF"/>
<path d="M24.4375 8.5C24.4375 10.0938 23.9875 11.7124 23.1438 13.0625L16 24.3875V13.25C18.5874 13.25 20.6875 11.0874 20.6875 8.5C20.6875 5.9126 18.5874 3.75 16 3.75V0C20.6499 0 24.4375 3.84985 24.4375 8.5V8.5Z" fill="#FF7816"/>
<path d="M16 24.5H27.7188V26.375H16V24.5Z" fill="#73BCFF"/>
</g>
<defs>
<clipPath id="clip0">
<rect width="32" height="32" fill="white"/>
</clipPath>
</defs>
</svg>
