<svg width="32" height="32" viewBox="0 0 32 32" fill="none" xmlns="http://www.w3.org/2000/svg">
<g clip-path="url(#clip0)">
<path d="M32 20.6875H20.625V19.75C20.625 15.0977 16.8398 11.3125 12.1875 11.3125C7.53516 11.3125 3.75 15.0977 3.75 19.75V20.6875H0V19.75C0 15.4763 1.66431 11.4583 4.68628 8.43628C7.70825 5.41431 11.7263 3.75 16 3.75C20.2737 3.75 24.2917 5.41431 27.3137 8.43628C30.3357 11.4583 32 15.4763 32 19.75V20.6875Z" fill="#FFCE2E"/>
<path d="M27.3137 8.43628C24.2917 5.41431 20.2737 3.75 16 3.75C11.7263 3.75 7.70825 5.41431 4.68628 8.43628C4.46411 8.6582 4.25049 8.88647 4.04297 9.1189L7.59766 12.6736C8.91968 11.8132 10.4961 11.3125 12.1875 11.3125C16.0593 11.3125 19.3301 13.9343 20.3186 17.4958L31.9846 19.0664C31.8169 15.0493 30.1741 11.2966 27.3137 8.43628Z" fill="#FF9900"/>
<path d="M20.625 19.75V20.6875H32V19.75C32 15.4763 30.3357 11.4583 27.3137 8.43628C24.2917 5.41431 20.2737 3.75 16 3.75V12.2244C18.7419 13.6191 20.625 16.4688 20.625 19.75Z" fill="#FF4F18"/>
<path d="M28.0117 8.4375L13.6209 21.5674C13.0943 22.0478 13.0752 22.8706 13.5794 23.3745L17.0938 26.8889C17.5984 27.3938 18.4229 27.374 18.9029 26.8455L32 12.4248V8.4375H28.0117Z" fill="#B7E4F8"/>
<path d="M17.0935 26.8889C17.5984 27.3938 18.4229 27.374 18.9028 26.8455L32 12.4248V8.4375L15.335 25.1304L17.0935 26.8889Z" fill="#6FC8F1"/>
<path d="M15.9998 28.2192C14.998 28.2192 14.0562 27.8291 13.3479 27.1208C11.886 25.6587 11.886 23.2795 13.3479 21.8174C14.0562 21.1091 14.998 20.719 15.9998 20.719C17.0012 20.719 17.9431 21.1091 18.6514 21.8174C20.1135 23.2795 20.1135 25.6584 18.6514 27.1208C17.9431 27.8291 17.0012 28.2192 15.9998 28.2192V28.2192Z" fill="#388CB3"/>
<path d="M18.6514 21.8174L13.3479 27.1208C14.0562 27.8291 14.998 28.2192 15.9998 28.2192C17.0012 28.2192 17.9431 27.8291 18.6514 27.1208C20.1133 25.6587 20.1133 23.2795 18.6514 21.8174Z" fill="#265D77"/>
</g>
<defs>
<clipPath id="clip0">
<rect width="32" height="32" fill="white"/>
</clipPath>
</defs>
</svg>
