<svg width="32" height="32" viewBox="0 0 32 32" fill="none" xmlns="http://www.w3.org/2000/svg">
<path d="M27.9375 15H15.4375C13.8867 15 12.625 13.7383 12.625 12.1875V2.8125C12.625 1.26169 13.8867 0 15.4375 0H27.9375C29.4883 0 30.75 1.26169 30.75 2.8125V12.1875C30.75 13.7383 29.4883 15 27.9375 15Z" fill="#FFF17D"/>
<path d="M12.625 7.5V12.1875C12.625 13.7383 13.8867 15 15.4375 15H27.9375C29.4883 15 30.75 13.7383 30.75 12.1875V7.5H12.625Z" fill="#FFCD00"/>
<path d="M31.0625 9.6875H27.3125C26.1044 9.6875 25.125 8.70812 25.125 7.5C25.125 6.29188 26.1044 5.3125 27.3125 5.3125H31.0625C31.5803 5.3125 32 5.73225 32 6.25V8.75C32 9.26775 31.5803 9.6875 31.0625 9.6875Z" fill="#FFCD00"/>
<path d="M25.125 7.5C25.125 8.70812 26.1044 9.6875 27.3125 9.6875H31.0625C31.5803 9.6875 32 9.26775 32 8.75V7.5H25.125Z" fill="#FF9F22"/>
<path d="M15.3125 32H2.8125C1.26169 32 0 30.7383 0 29.1875V19.8125C0 18.2617 1.26169 17 2.8125 17H15.3125C16.8633 17 18.125 18.2617 18.125 19.8125V29.1875C18.125 30.7383 16.8633 32 15.3125 32Z" fill="#FFF17D"/>
<path d="M0 24.5V29.1875C0 30.7383 1.26169 32 2.8125 32H15.3125C16.8633 32 18.125 30.7383 18.125 29.1875V24.5H0Z" fill="#FFCD00"/>
<path d="M18.4375 26.6875H14.6875C13.4794 26.6875 12.5 25.7081 12.5 24.5C12.5 23.2919 13.4794 22.3125 14.6875 22.3125H18.4375C18.9553 22.3125 19.375 22.7322 19.375 23.25V25.75C19.375 26.2678 18.9553 26.6875 18.4375 26.6875Z" fill="#FFCD00"/>
<path d="M12.5 24.5C12.5 25.7081 13.4794 26.6875 14.6875 26.6875H18.4375C18.9553 26.6875 19.375 26.2678 19.375 25.75V24.5H12.5Z" fill="#FF9F22"/>
<path d="M26 25.4375H22.25C21.7322 25.4375 21.3125 25.0178 21.3125 24.5C21.3125 23.9822 21.7322 23.5625 22.25 23.5625H25.0625V18.25C25.0625 17.7322 25.4822 17.3125 26 17.3125C26.5178 17.3125 26.9375 17.7322 26.9375 18.25V24.5C26.9375 25.0178 26.5178 25.4375 26 25.4375Z" fill="#1766A0"/>
<path d="M22.25 25.4375H26C26.5178 25.4375 26.9375 25.0178 26.9375 24.5H21.3125C21.3125 25.0178 21.7322 25.4375 22.25 25.4375Z" fill="#002659"/>
<path d="M6 14.6875C5.48225 14.6875 5.0625 14.2678 5.0625 13.75V7.5C5.0625 6.98225 5.48225 6.5625 6 6.5625H9.75C10.2678 6.5625 10.6875 6.98225 10.6875 7.5C10.6875 8.01775 10.2678 8.4375 9.75 8.4375H6.9375V13.75C6.9375 14.2678 6.51775 14.6875 6 14.6875Z" fill="#1766A0"/>
<path d="M5.0625 13.75C5.0625 14.2678 5.48225 14.6875 6 14.6875C6.51775 14.6875 6.9375 14.2678 6.9375 13.75V8.4375H9.75C10.2678 8.4375 10.6875 8.01775 10.6875 7.5H5.0625V13.75Z" fill="#002659"/>
</svg>
