<svg width="32" height="32" viewBox="0 0 32 32" fill="none" xmlns="http://www.w3.org/2000/svg">
<path d="M15.9566 26.0191C21.49 26.0191 25.9757 21.5334 25.9757 16C25.9757 10.4666 21.49 5.98087 15.9566 5.98087C10.4232 5.98087 5.9375 10.4666 5.9375 16C5.9375 21.5334 10.4232 26.0191 15.9566 26.0191Z" fill="url(#paint0_linear)"/>
<path d="M15.9568 25.5234C21.2164 25.5234 25.4802 21.2596 25.4802 16C25.4802 10.7403 21.2164 6.47656 15.9568 6.47656C10.6971 6.47656 6.43335 10.7403 6.43335 16C6.43335 21.2596 10.6971 25.5234 15.9568 25.5234Z" fill="url(#paint1_linear)"/>
<path d="M15.9566 23.6843C20.2005 23.6843 23.6409 20.2439 23.6409 16C23.6409 11.756 20.2005 8.31561 15.9566 8.31561C11.7126 8.31561 8.27222 11.756 8.27222 16C8.27222 20.2439 11.7126 23.6843 15.9566 23.6843Z" fill="url(#paint2_linear)"/>
<path d="M23.6309 16.3912L18.8457 11.606C18.7393 11.4207 18.5184 11.2678 18.1826 11.147C17.8379 11.0233 17.4706 10.9391 17.0814 10.8927L16.5676 10.4342C16.5572 10.3617 16.5148 10.296 16.436 10.2379C16.3452 10.1713 16.2474 10.1377 16.1426 10.1377C16.0281 10.1377 15.9301 10.1713 15.8491 10.2379C15.7679 10.3048 15.7274 10.3811 15.7274 10.4669V10.8821C14.9544 10.968 14.3078 11.2256 13.7877 11.6551C13.2674 12.0846 13.0074 12.714 13.0074 13.543C13.0074 13.8382 13.0408 14.1073 13.1076 14.3502C13.1743 14.5931 13.2841 14.805 13.4369 14.986C13.5895 15.1669 13.7351 15.3217 13.8735 15.4503C13.8808 15.4572 13.889 15.464 13.8967 15.4707L15.7274 17.3056V19.7005C15.3044 19.6719 14.932 19.5625 14.6098 19.3719C14.2878 19.1816 14.0348 19.0031 13.8505 18.8362C13.6661 18.6696 13.5174 18.5861 13.4043 18.5861C13.2333 18.5861 13.0817 18.6767 12.9488 18.8576C12.816 19.0385 12.7498 19.2195 12.7498 19.4005C12.7498 19.6971 12.9218 19.9893 13.2646 20.2771L16.6409 23.6535C20.4358 23.3186 23.4386 20.2255 23.6309 16.3912Z" fill="url(#paint3_linear)"/>
<path d="M12.7498 19.4005C12.7498 19.2196 12.816 19.0386 12.9488 18.8576C13.0816 18.6767 13.2334 18.5861 13.4043 18.5861C13.5174 18.5861 13.6661 18.6695 13.8505 18.8362C14.0348 19.003 14.2878 19.1816 14.6098 19.3719C14.9319 19.5625 15.3044 19.6719 15.7274 19.7005V16.3433C15.4411 16.2386 15.2214 16.1552 15.0689 16.0932C14.9161 16.0314 14.7133 15.9408 14.4604 15.8218C14.2075 15.7028 14.0118 15.579 13.8735 15.4503C13.7351 15.3217 13.5894 15.1669 13.4369 14.986C13.2841 14.805 13.1744 14.5932 13.1076 14.3502C13.0408 14.1073 13.0074 13.8382 13.0074 13.543C13.0074 12.714 13.2674 12.0846 13.7877 11.6551C14.3077 11.2256 14.9544 10.968 15.7274 10.8821V10.4669C15.7274 10.381 15.7679 10.3048 15.8491 10.2379C15.9301 10.1713 16.0281 10.1377 16.1426 10.1377C16.2475 10.1377 16.3453 10.1713 16.436 10.2379C16.5266 10.3048 16.5721 10.3811 16.5721 10.4669V10.8534C17.1541 10.8726 17.691 10.9704 18.1826 11.1468C18.6741 11.3235 18.9199 11.5691 18.9199 11.8841C18.9199 12.0559 18.8619 12.2348 18.7466 12.421C18.6312 12.6071 18.477 12.7001 18.2846 12.7001C18.2086 12.7001 17.9994 12.6191 17.6577 12.4567C17.3156 12.2945 16.9538 12.199 16.5721 12.1704V15.0715C16.9517 15.2145 17.2673 15.3502 17.5187 15.4788C17.7701 15.6074 18.0361 15.7859 18.3161 16.0145C18.5962 16.243 18.8074 16.5311 18.9497 16.8788C19.0919 17.2264 19.1633 17.6336 19.1633 18.1003C19.1633 18.9529 18.9306 19.6307 18.4656 20.1335C18.0003 20.6363 17.3693 20.9453 16.5721 21.0602V21.5385C16.5721 21.6228 16.5268 21.6977 16.4361 21.7635C16.3453 21.829 16.2475 21.8619 16.1427 21.8619C16.0282 21.8619 15.9302 21.829 15.8492 21.7637C15.768 21.698 15.7275 21.623 15.7275 21.5387V21.1032C14.8972 21.0936 14.1933 20.9037 13.6159 20.5333C13.0384 20.1631 12.7498 19.7855 12.7498 19.4005ZM14.4248 13.4003C14.4248 13.7718 14.5404 14.0553 14.7719 14.2503C15.0031 14.4456 15.3504 14.629 15.8133 14.8003V12.1978C14.8875 12.3123 14.4248 12.7132 14.4248 13.4003ZM16.4862 19.6719C17.3259 19.5195 17.746 19.048 17.746 18.2576C17.746 17.8386 17.6361 17.51 17.4167 17.272C17.1971 17.034 16.8871 16.8291 16.4862 16.6576V19.6719Z" fill="#FFB92D"/>
<path d="M31.0781 7.25273C30.4308 7.01592 29.7224 7.28623 29.3857 7.86061C28.324 6.10824 26.9225 4.57505 25.2343 3.33624C22.5291 1.35137 19.321 0.302246 15.9567 0.302246C12.5924 0.302246 9.38419 1.35137 6.67907 3.33624C4.02964 5.28024 2.0849 7.94873 1.05496 11.053C0.810773 11.789 1.20952 12.5837 1.94558 12.8279C2.68189 13.0722 3.47639 12.6733 3.72052 11.9373C4.56595 9.3891 6.16351 7.19786 8.34051 5.60049C10.5605 3.97155 13.1941 3.11049 15.9567 3.11049C18.7193 3.11049 21.3528 3.97155 23.5729 5.60055C24.8694 6.5518 25.9602 7.7138 26.8092 9.03629C26.1632 8.93923 25.5164 9.30548 25.2832 9.94285C25.0166 10.6712 25.391 11.4776 26.1194 11.7441L29.0432 12.8139C29.0502 12.8165 29.0573 12.8182 29.0643 12.8206C29.0888 12.8292 29.1136 12.8369 29.1386 12.8441C29.152 12.8479 29.1653 12.8518 29.1787 12.8553C29.2039 12.8618 29.2293 12.8672 29.255 12.8723C29.268 12.8748 29.2811 12.8778 29.2941 12.88C29.3213 12.8846 29.3487 12.8878 29.3762 12.8908C29.3874 12.892 29.3986 12.8939 29.4098 12.8948C29.4481 12.898 29.4867 12.8998 29.5254 12.8998C29.5254 12.8998 29.5254 12.8998 29.5255 12.8998H29.5255C29.562 12.8998 29.5983 12.8983 29.6343 12.8955C29.6429 12.8948 29.6515 12.8933 29.6601 12.8925C29.6878 12.8898 29.7155 12.887 29.743 12.8826C29.7536 12.8809 29.7642 12.8784 29.7748 12.8765C29.8004 12.8718 29.8258 12.867 29.851 12.861C29.8628 12.8582 29.8745 12.8546 29.8863 12.8514C29.9102 12.8451 29.9339 12.8386 29.9573 12.831C29.9608 12.8299 29.9643 12.8292 29.9678 12.828C29.9748 12.8257 29.9813 12.8225 29.9882 12.8202C30.0192 12.8093 30.0497 12.7975 30.0798 12.7846C30.0928 12.7791 30.1057 12.7735 30.1183 12.7677C30.1477 12.754 30.1765 12.7392 30.2048 12.7235C30.2138 12.7185 30.2232 12.7141 30.2321 12.709C30.2662 12.6892 30.2993 12.6675 30.3318 12.6448C30.3445 12.6359 30.3565 12.6265 30.3688 12.6172C30.3904 12.601 30.4117 12.5842 30.4324 12.5667C30.4438 12.5571 30.455 12.5475 30.4661 12.5375C30.4897 12.5162 30.5126 12.4939 30.5348 12.471C30.5409 12.4646 30.5475 12.4585 30.5535 12.452C30.5825 12.421 30.6102 12.3885 30.6363 12.3546C30.6382 12.3522 30.6398 12.3497 30.6416 12.3473C30.6649 12.3167 30.687 12.2849 30.708 12.252C30.7135 12.2432 30.7188 12.2343 30.7242 12.2254C30.7404 12.1987 30.7557 12.1715 30.7703 12.1436C30.7762 12.1321 30.7822 12.1207 30.7878 12.109C30.8005 12.0828 30.8122 12.056 30.8234 12.0288C30.8286 12.0162 30.8342 12.0037 30.839 11.991C30.8406 11.9866 30.8427 11.9824 30.8443 11.978L31.9142 9.05417C32.1807 8.32573 31.8063 7.51923 31.0781 7.25273Z" fill="url(#paint4_radial)"/>
<path d="M0.92205 24.7471C1.5693 24.9839 2.27773 24.7136 2.61448 24.1393C3.67611 25.8916 5.07767 27.4248 6.76585 28.6636C9.47097 30.6485 12.6792 31.6977 16.0435 31.6977C19.4078 31.6977 22.6159 30.6486 25.3211 28.6636C27.9705 26.7196 29.9152 24.0512 30.9452 20.9469C31.1894 20.2108 30.7907 19.4161 30.0546 19.172C29.3183 18.9277 28.5238 19.3265 28.2797 20.0626C27.4343 22.6108 25.8367 24.802 23.6597 26.3994C21.4397 28.0283 18.8061 28.8894 16.0435 28.8894C13.2809 28.8894 10.6474 28.0284 8.42735 26.3994C7.13085 25.4481 6.03998 24.2861 5.19104 22.9636C5.83704 23.0607 6.48385 22.6944 6.71704 22.0571C6.9836 21.3288 6.60916 20.5223 5.88085 20.2558L2.95705 19.186C2.95005 19.1835 2.94292 19.1818 2.93592 19.1793C2.91136 19.1708 2.88661 19.163 2.86161 19.1558C2.84823 19.152 2.83492 19.1481 2.82155 19.1446C2.7963 19.1381 2.77086 19.1327 2.74523 19.1276C2.73217 19.1251 2.71911 19.1221 2.70611 19.1199C2.67892 19.1153 2.65155 19.1121 2.62398 19.1091C2.6128 19.1079 2.60161 19.106 2.59042 19.1051C2.55211 19.102 2.51355 19.1001 2.4748 19.1001C2.4748 19.1001 2.4748 19.1001 2.47473 19.1001H2.47467C2.43823 19.1001 2.40192 19.1016 2.36592 19.1045C2.3573 19.1051 2.34873 19.1066 2.34011 19.1074C2.31236 19.1101 2.28467 19.113 2.25723 19.1173C2.24661 19.119 2.23605 19.1215 2.22536 19.1235C2.1998 19.1281 2.17436 19.1329 2.14917 19.1389C2.13736 19.1417 2.12567 19.1453 2.11386 19.1485C2.09005 19.1548 2.0663 19.1613 2.04292 19.1689C2.03942 19.17 2.03592 19.1708 2.03236 19.1719C2.02542 19.1742 2.01892 19.1774 2.01199 19.1798C1.98105 19.1906 1.95049 19.2024 1.92036 19.2153C1.90742 19.2208 1.89455 19.2264 1.88192 19.2323C1.85255 19.246 1.82374 19.2608 1.79536 19.2765C1.78636 19.2814 1.77699 19.2858 1.76811 19.291C1.73399 19.3108 1.70086 19.3325 1.66842 19.3551C1.65574 19.364 1.64367 19.3735 1.63142 19.3827C1.6098 19.399 1.58855 19.4157 1.5678 19.4332C1.55642 19.4428 1.54517 19.4525 1.53411 19.4625C1.51049 19.4838 1.48761 19.506 1.46542 19.529C1.4593 19.5353 1.45267 19.5414 1.44667 19.5479C1.41774 19.579 1.39005 19.6115 1.36386 19.6453C1.36205 19.6477 1.36042 19.6502 1.35861 19.6526C1.3353 19.6832 1.31317 19.7151 1.29224 19.7479C1.28667 19.7567 1.28136 19.7656 1.27599 19.7746C1.2598 19.8012 1.24449 19.8284 1.22992 19.8563C1.22399 19.8678 1.21799 19.8793 1.21236 19.891C1.19967 19.9171 1.18799 19.9439 1.1768 19.9711C1.17161 19.9838 1.16605 19.9962 1.16124 20.009C1.15961 20.0133 1.15755 20.0175 1.15592 20.022L0.0859261 22.9459C-0.180636 23.6741 0.193738 24.4807 0.92205 24.7471Z" fill="url(#paint5_radial)"/>
<defs>
<linearGradient id="paint0_linear" x1="15.9562" y1="20.3221" x2="15.9562" y2="-0.0149344" gradientUnits="userSpaceOnUse">
<stop stop-color="#FFF465"/>
<stop offset="1" stop-color="#FFE600"/>
</linearGradient>
<linearGradient id="paint1_linear" x1="15.9564" y1="11.8925" x2="15.9564" y2="31.2238" gradientUnits="userSpaceOnUse">
<stop stop-color="#FFF465"/>
<stop offset="1" stop-color="#FFE600"/>
</linearGradient>
<linearGradient id="paint2_linear" x1="19.4422" y1="19.4864" x2="7.69099" y2="7.73509" gradientUnits="userSpaceOnUse">
<stop stop-color="#FFF465"/>
<stop offset="1" stop-color="#FFE600"/>
</linearGradient>
<linearGradient id="paint3_linear" x1="23.8738" y1="20.912" x2="8.69108" y2="12.6261" gradientUnits="userSpaceOnUse">
<stop stop-color="#FFE600" stop-opacity="0"/>
<stop offset="1" stop-color="#F59500"/>
</linearGradient>
<radialGradient id="paint4_radial" cx="0" cy="0" r="1" gradientUnits="userSpaceOnUse" gradientTransform="translate(15.7971 15.8893) scale(15.8973)">
<stop stop-color="#00A2F3"/>
<stop offset="0.273" stop-color="#03A4F3"/>
<stop offset="0.463" stop-color="#0CAAF4"/>
<stop offset="0.627" stop-color="#1BB4F5"/>
<stop offset="0.777" stop-color="#31C2F7"/>
<stop offset="0.916" stop-color="#4DD4F9"/>
<stop offset="1" stop-color="#62E1FB"/>
</radialGradient>
<radialGradient id="paint5_radial" cx="0" cy="0" r="1" gradientUnits="userSpaceOnUse" gradientTransform="translate(16.2035 16.1103) rotate(180) scale(15.8975)">
<stop stop-color="#BE3F45"/>
<stop offset="0.317" stop-color="#C14046"/>
<stop offset="0.538" stop-color="#CA4148"/>
<stop offset="0.729" stop-color="#D9444B"/>
<stop offset="0.902" stop-color="#EF4950"/>
<stop offset="1" stop-color="#FF4C54"/>
</radialGradient>
</defs>
</svg>
